<?xml version="1.0" encoding="UTF-8" standalone="no"?>
<svg
   xmlns:dc="http://purl.org/dc/elements/1.1/"
   xmlns:cc="http://creativecommons.org/ns#"
   xmlns:rdf="http://www.w3.org/1999/02/22-rdf-syntax-ns#"
   xmlns:svg="http://www.w3.org/2000/svg"
   xmlns="http://www.w3.org/2000/svg"
   viewBox="0 0 450.66666 405.33334"
   height="405.33334"
   width="450.66666"
   id="svg62"
   version="1.1">
  <metadata
     id="metadata68">
    <rdf:RDF>
      <cc:Work
         rdf:about="">
        <dc:format>image/svg+xml</dc:format>
        <dc:type
           rdf:resource="http://purl.org/dc/dcmitype/StillImage" />
        <dc:title></dc:title>
      </cc:Work>
    </rdf:RDF>
  </metadata>
  <defs
     id="defs66" />
  <g
     id="g70">
    <path
       id="path74"
       d="m 210.27383,391.93684 c -2.38607,-2.38606 -3.27274,-4.72062 -3.27274,-8.61694 0,-4.3399 -3.1768,-11.11896 -16.90464,-36.07329 -16.8409,-30.61323 -16.92512,-30.73428 -22.33333,-32.10572 -21.88893,-5.55071 -46.37715,-16.09254 -60.05498,-25.85284 -16.565894,-11.82118 -27.829034,-28.27092 -29.600954,-43.23199 -0.65095,-5.49624 -1.30015,-6.84649 -3.29181,-6.84649 -2.17876,0 -2.48095,-1.11791 -2.48095,-9.17783 0,-8.05648 -0.32581,-9.26303 -2.66666,-9.87517 -2.0426,-0.53415 -2.66667,-1.81868 -2.66667,-5.48884 v -4.7915 h 12.66667 12.66666 V 194.5429 179.20957 h 7.333343 c 6.444441,0 7.333331,0.32322 7.333331,2.66666 0,3.33207 5.58825,3.57167 15.2119,0.65224 9.09015,-2.7576 13.72372,-2.5534 15.45476,0.6811 1.21561,2.27138 1.01399,2.66666 -1.36019,2.66666 -1.53304,0 -6.74457,2.1 -11.58118,4.66667 -5.0013,2.65407 -10.71978,4.66667 -13.25957,4.66667 h -4.46572 v 7.33333 7.33333 h 13.99999 c 13.31979,0 14,0.13563 14,2.7915 0,1.62457 -1.06268,3.06938 -2.54215,3.45628 -2.22871,0.58282 -2.60947,2.25248 -3.08814,13.54184 -0.45801,10.80209 -0.14615,13.56257 1.93537,17.13133 3.6218,6.20955 16.7408,17.75112 20.13571,17.7146 2.54403,-0.0273 5.52757,-6.38429 24.76167,-52.75855 12.02802,-29.00008 22.08524,-54.03608 22.34937,-55.63554 0.35863,-2.1717 -0.87891,-3.83664 -4.88692,-6.57479 -2.95195,-2.01667 -5.88637,-3.66667 -6.52095,-3.66667 -0.63457,0 -1.90357,1.81018 -2.81998,4.02262 -2.46206,5.9439 -15.45868,17.18513 -25.08978,21.701 -7.42941,3.48353 -9.49122,3.87784 -17.33333,3.31489 -9.92976,-0.7128 -18.45806,-4.33895 -25.14631,-10.69195 -2.96315,-2.81461 -4.97677,-3.75414 -6.66667,-3.11061 -1.48897,0.56703 -1.90784,0.45545 -1.08788,-0.28977 0.73333,-0.66651 4.03333,-2.2563 7.33333,-3.53288 3.3,-1.27659 7.62561,-4.21683 9.61248,-6.53386 1.98686,-2.31702 3.63686,-3.46277 3.66666,-2.5461 0.0298,0.91666 1.40419,1.71522 3.05419,1.77458 2.14385,0.0771 1.19257,0.88566 -3.33333,2.83315 -3.48334,1.49888 -6.33334,3.55032 -6.33334,4.55875 0,2.22328 -0.94915,2.22754 10.88271,-0.0489 13.23295,-2.54606 23.49869,-6.57293 33.09801,-12.9831 8.07692,-5.39356 9.99282,-8.55748 5.68595,-9.38986 -1.90395,-0.36797 5.88477,-4.00922 29.82477,-13.94318 0.8203,-0.34038 1.81412,0.61506 2.20851,2.1232 0.87065,3.32937 6.94192,3.80051 8.1574,0.63303 1.56772,-4.08541 0.86987,-4.9017 -3.52401,-4.12211 -3.65168,0.64791 -3.28464,0.27229 2.33333,-2.38784 6.07644,-2.87722 45.19317,-19.449235 52.33333,-22.171297 1.73902,-0.662968 3,-0.638224 3,0.05887 0,0.661411 -1.05,1.47696 -2.33333,1.812329 -1.28333,0.335371 0.40776,0.679366 3.758,0.764434 8.38552,0.212921 18.62608,-3.019348 31.242,-9.861033 10.11104,-5.483277 23.25948,-15.620661 17.33333,-13.36392 -1.46666,0.558523 -3.86666,1.263098 -5.33333,1.565722 -2.29157,0.47283 -2.24468,0.329118 0.33333,-1.021691 4.89904,-2.566957 3.48059,-4.596695 -5.00853,-7.166995 -4.40469,-1.333635 -7.75416,-2.679163 -7.44327,-2.990064 0.31091,-0.310901 4.8247,0.806559 10.03063,2.483245 7.94312,2.558251 10.31589,2.821502 14.754,1.636903 5.26311,-1.404807 5.28488,-1.394847 4.51087,2.063775 -3.6797,16.442299 -7.28858,23.882436 -15.39811,31.744932 -12.46849,12.08867 -29.39383,15.57687 -55.9066,11.52198 l -4.79436,-0.73325 -0.81411,8.47086 c -1.4634,15.22663 -7.31476,26.59463 -16.18652,31.44714 -2.43622,1.33251 -1.14268,4.71599 21.87592,57.21999 13.4559,30.69205 24.96508,56.36772 25.57599,57.05705 2.79436,3.15308 18.98228,-9.04822 24.36585,-18.36526 2.94968,-5.10484 3.14992,-6.55362 2.47234,-17.88806 -0.65007,-10.87401 -1.03096,-12.33334 -3.21904,-12.33334 -2.08918,0 -2.48172,-1.0545 -2.48172,-6.66667 v -6.66671 h 12 12 v -5.33333 c 0,-2.93333 0.6,-5.33333 1.33333,-5.33333 0.82963,0 1.33333,-7.55556 1.33333,-20 v -20 h 7.24478 c 6.91221,0 7.26413,0.1683 7.66666,3.66666 0.39643,3.44531 0.78412,3.64915 6.42189,3.37654 3.3,-0.15959 9.54394,-1.50959 13.8754,-3 10.06428,-3.46304 14.98006,-3.41348 20.79127,0.2096 l 4.66667,2.9095 -5.72851,1.02655 c -3.15068,0.5646 -9.21239,3.14288 -13.47044,5.72951 -10.69421,6.4964 -18.79817,10.01773 -23.13439,10.05236 l -3.66666,0.0293 v 13.33331 13.33333 h 14 14 v 3.33334 c 0,1.83333 -0.6,3.33333 -1.33334,3.33333 -0.73333,0 -1.33333,1.5 -1.33333,3.33333 0,2.07408 -0.75556,3.33334 -2,3.33334 -1.5658,0 -2,1.82072 -2,8.38653 0,11.14839 -2.92359,21.80393 -9.39556,34.24389 l -5.32808,10.24126 5.26363,15.23082 c 2.895,8.37696 5.65564,16.23814 6.13473,17.4693 0.71196,1.82951 -0.78108,2.73413 -8.17244,4.95159 -4.97395,1.49222 -9.37176,2.38618 -9.77291,1.98657 -0.40116,-0.3996 -0.9356,-6.67781 -1.18765,-13.95159 -0.25205,-7.27377 -1.0238,-13.22504 -1.71501,-13.22504 -0.6912,0 -4.98497,2.85621 -9.54172,6.34713 -4.55675,3.49092 -11.13499,8.01622 -14.61832,10.0562 -3.48333,2.04001 -6.31041,4.43379 -6.2824,5.31954 0.028,0.88576 5.84127,5.66047 12.91833,10.61047 10.4814,7.33113 13.82094,9 18.00968,9 6.18492,0 11.68772,4.72793 11.68772,10.04196 0,4.27457 -6.62859,11.29137 -10.66667,11.29137 -3.60233,0 -10.66666,-6.9118 -10.66666,-10.43637 0,-1.86308 -4.79736,-6.0189 -16.2796,-14.10256 -8.95377,-6.30359 -17.34471,-11.46107 -18.64652,-11.46107 -1.3018,0 -7.32599,1.42856 -13.38707,3.17459 -6.06108,1.74602 -15.37014,3.90024 -20.68681,4.78714 -6.14172,1.02452 -9.66667,2.2366 -9.66667,3.32396 0,0.94128 7.85803,9.88707 17.4623,19.87954 15.5403,16.16844 17.94869,18.1681 21.88148,18.1681 3.29785,0 5.29505,1.04092 7.87104,4.10231 3.94196,4.68475 4.03194,5.16572 1.85893,9.93495 -1.47009,3.22653 -7.18089,7.29608 -10.23856,7.29608 -2.97231,0 -9.50185,-7.03176 -9.50185,-10.23267 0,-2.48768 -5.57671,-9.15073 -22.06699,-26.36569 l -22.067,-23.03675 -22.26633,-0.83497 c -12.2465,-0.45924 -24.21635,-1.20944 -26.59968,-1.66711 -2.86978,-0.55109 -4.33334,-0.31156 -4.33334,0.70921 0,0.84774 6.39772,13.21584 14.21716,27.48467 10.2326,18.67232 14.88284,25.94331 16.59232,25.94331 4.36024,0 9.63496,5.83953 9.63496,10.66666 0,3.15971 -1.0362,5.31335 -3.6299,7.54435 -4.67159,4.01833 -9.42587,3.96553 -13.5418,-0.15041 z m 13.32944,-85.28106 c 5.37009,-2.24377 7.39782,-5.55648 7.39782,-12.08583 0,-3.28858 -1.00237,-5.8173 -3.16201,-7.97694 -3.16197,-3.16198 -3.16199,-3.16204 -0.33333,-3.92119 1.55577,-0.41755 5.97868,-0.76737 9.82868,-0.77739 6.76193,-0.0176 7,-0.14429 7,-3.726 0,-3.21737 -19.16046,-99.54588 -22.33575,-112.2922 -1.08861,-4.36993 -1.22027,-4.0732 -2.07057,4.66667 -0.49944,5.13333 -0.91232,32.27191 -0.91754,60.30793 l -0.009,50.9746 -3.33726,0.8376 c -1.8355,0.46068 -4.89504,2.68891 -6.799,4.95164 -2.76371,3.28447 -3.31127,5.04124 -2.71554,8.71232 0.85151,5.24724 5.18183,10.47866 9.35083,11.29665 1.55887,0.30586 3.00357,0.63782 3.21047,0.73769 0.20688,0.0999 2.40858,-0.66763 4.89268,-1.70555 z m -54.84786,-7.60227 c 10.60983,-5.42592 9.8994,-20.21789 -1.14609,-23.86324 -11.28604,-3.72472 -21.63324,10.44823 -14.24524,19.51227 4.53241,5.56064 10.00235,7.10693 15.39133,4.35097 z m 117.01491,-2.40805 c 2.88548,-2.88547 3.89744,-5.16239 3.89744,-8.76923 0,-3.60684 -1.01196,-5.88376 -3.89744,-8.76922 -2.88547,-2.88548 -5.16239,-3.89744 -8.76923,-3.89744 -3.60684,0 -5.88376,1.01196 -8.76922,3.89744 -2.88548,2.88546 -3.89744,5.16238 -3.89744,8.76922 0,3.60684 1.01196,5.88376 3.89744,8.76923 2.88546,2.88548 5.16238,3.89744 8.76922,3.89744 3.60684,0 5.88376,-1.01196 8.76923,-3.89744 z m -72.09848,-53.76923 c 0.003,-21.45 0.39668,-49.35 0.87653,-62 0.8362,-22.04406 0.76676,-22.99996 -1.67074,-22.999 -2.28264,9.1e-4 -3.7402,5.90899 -14.22664,57.66667 -6.4259,31.71612 -11.6759,59.00424 -11.66667,60.64027 0.0207,3.65938 5.30005,5.1374 19.68344,5.51049 l 7,0.18157 0.004,-39 z m 42.59696,36.22286 c 3.70276,-0.79411 6.73229,-2.09774 6.73229,-2.89695 0,-2.17161 -27.90065,-87.48309 -30.63073,-93.65924 -1.29665,-2.93333 -2.72765,-6.23333 -3.18001,-7.33333 -1.675,-4.07306 0.88901,11.05888 8.58517,50.66666 10.15484,52.26126 10.65005,54.66667 11.25448,54.66667 0.27857,0 3.53604,-0.64972 7.2388,-1.44381 z m -72.74431,-4.46006 c 0.44687,-1.78045 4.94236,-23.83045 9.98998,-49 8.48268,-42.29817 11.91826,-62.02682 9.94284,-57.09613 -0.4407,1.1 -1.84975,4.4 -3.13122,7.33333 -4.93992,11.30767 -32.12444,97.06526 -31.08662,98.06734 1.0858,1.0484 9.02558,3.58134 11.95041,3.81241 0.83717,0.0661 1.88775,-1.33648 2.33461,-3.11695 z m 92.28871,-1.4043 c 2.90583,-1.21414 4.55852,-2.73543 4.29051,-3.94938 -1.33144,-6.03053 -48.70983,-111.35317 -50.10262,-111.37864 -0.91666,-0.0168 -1.66666,0.33104 -1.66666,0.77291 0,0.44187 8.52312,26.84187 18.94026,58.66667 20.6776,63.17089 18.99508,59.87593 28.53851,55.88844 z m -99.00377,-36.3585 c 11.92013,-36.0149 19.55105,-60.48184 19.48705,-62.48112 -0.0772,-2.4124 -10.61223,21.17359 -25.30855,56.66138 -14.37512,34.71213 -14.99836,36.60336 -12.63248,38.33333 6.03326,4.41161 6.51136,3.56924 18.45398,-32.51359 z m -37.80834,-89 c 1.83334,-1.04802 3.93334,-1.9055 4.66667,-1.9055 0.73333,0 -0.16667,0.85748 -2,1.9055 -1.83333,1.04803 -3.93333,1.90551 -4.66667,1.90551 -0.73333,0 0.16667,-0.85748 2,-1.90551 z m -7.33333,-4.66666 c 1.32732,-1.46667 2.7133,-2.66667 3.07997,-2.66667 0.36666,0 -0.41932,1.2 -1.74664,2.66667 -1.32731,1.46666 -2.7133,2.66666 -3.07996,2.66666 -0.36667,0 0.41932,-1.2 1.74663,-2.66666 z m 16.66667,0.66666 c 1.83333,-1.04802 3.93333,-1.9055 4.66666,-1.9055 0.73334,0 -0.16666,0.85748 -2,1.9055 -1.83333,1.04803 -3.93333,1.90551 -4.66666,1.90551 -0.73334,0 0.16666,-0.85748 2,-1.90551 z m 8,-3.33333 c 1.1,-0.71088 2.6,-1.29249 3.33333,-1.29249 0.73333,0 0.43333,0.58161 -0.66667,1.29249 -1.1,0.71088 -2.6,1.29249 -3.33333,1.29249 -0.73333,0 -0.43333,-0.58161 0.66667,-1.29249 z m -19.33334,-4 c 1.32732,-1.46667 2.71331,-2.66667 3.07998,-2.66667 0.36666,0 -0.41932,1.2 -1.74664,2.66667 -1.32732,1.46667 -2.7133,2.66667 -3.07997,2.66667 -0.36667,0 0.41932,-1.2 1.74663,-2.66667 z m 28.66667,0 c 1.1,-0.71088 2.6,-1.29249 3.33333,-1.29249 0.73334,0 0.43334,0.58161 -0.66666,1.29249 -1.1,0.71088 -2.6,1.29249 -3.33334,1.29249 -0.73333,0 -0.43333,-0.58161 0.66667,-1.29249 z m -25.33333,-4.50341 c 0,-0.27687 1.05,-1.32687 2.33333,-2.33333 2.11475,-1.6585 2.16191,-1.61134 0.50341,0.50341 -1.74182,2.221 -2.83674,2.9273 -2.83674,1.82992 z m 5.33333,-6.66666 c 0,-0.27688 1.05,-1.32688 2.33333,-2.33334 2.11475,-1.65849 2.16191,-1.61133 0.50342,0.50341 -1.74183,2.221 -2.83675,2.9273 -2.83675,1.82993 z m 6,-7.4966 c 1.32732,-1.46666 2.71331,-2.66666 3.07997,-2.66666 0.36667,0 -0.41932,1.2 -1.74664,2.66666 -1.32732,1.46667 -2.7133,2.66667 -3.07997,2.66667 -0.36667,0 0.41932,-1.2 1.74664,-2.66667 z m 5.33333,-6.66666 c 1.32732,-1.46667 2.71331,-2.66667 3.07998,-2.66667 0.36666,0 -0.41932,1.2 -1.74664,2.66667 -1.32732,1.46666 -2.71331,2.66666 -3.07998,2.66666 -0.36666,0 0.41932,-1.2 1.74664,-2.66666 z m 5.33334,-6.66666 c 1.32732,-1.46667 2.7133,-2.66667 3.07997,-2.66667 0.36667,0 -0.41932,1.2 -1.74664,2.66667 -1.32732,1.46666 -2.71331,2.66666 -3.07997,2.66666 -0.36667,0 0.41932,-1.2 1.74664,-2.66666 z m 36,-5.333333 c -3.08847,-3.162888 -6.45427,-5.333338 -8.2706,-5.333338 -2.37803,0 -3.06274,-0.745202 -3.06274,-3.333334 v -3.333333 h 30 30 v 3.333333 c 0,2.761068 -0.64026,3.333334 -3.7294,3.333334 -2.5941,0 -5.31477,1.623564 -8.93726,5.333338 l -5.20787,5.333333 h -12.79213 -12.79214 z m -32.66667,0.829923 c 0,-0.276873 1.05,-1.326873 2.33333,-2.333335 2.11475,-1.658494 2.16191,-1.611334 0.50342,0.503402 -1.74183,2.221003 -2.83675,2.927313 -2.83675,1.829933 z m 6,-7.496595 c 1.32732,-1.466666 2.71331,-2.666666 3.07997,-2.666666 0.36667,0 -0.41932,1.2 -1.74664,2.666666 -1.32732,1.466667 -2.7133,2.666667 -3.07997,2.666667 -0.36667,0 0.41932,-1.2 1.74664,-2.666667 z m 98,0 c 1.1,-0.710874 2.6,-1.292498 3.33333,-1.292498 0.73334,0 0.43334,0.581624 -0.66666,1.292498 -1.1,0.710875 -2.6,1.292499 -3.33334,1.292499 -0.73333,0 -0.43333,-0.581624 0.66667,-1.292499 z m 8,-3.333333 c 1.83333,-1.048028 3.93333,-1.905506 4.66667,-1.905506 0.73333,0 -0.16667,0.857478 -2,1.905506 -1.83334,1.048028 -3.93334,1.905505 -4.66667,1.905505 -0.73333,0 0.16667,-0.857477 2,-1.905505 z M 177.00109,85.876238 c 1.32732,-1.466666 2.71331,-2.666666 3.07998,-2.666666 0.36666,0 -0.41932,1.2 -1.74664,2.666666 -1.32732,1.466667 -2.71331,2.666667 -3.07998,2.666667 -0.36666,0 0.41932,-1.2 1.74664,-2.666667 z m 110,-0.666666 c 1.83334,-1.048028 3.93334,-1.905506 4.66667,-1.905506 0.73333,0 -0.16667,0.857478 -2,1.905506 -1.83333,1.048028 -3.93333,1.905505 -4.66667,1.905505 -0.73333,0 0.16667,-0.857477 2,-1.905505 z m 8,-3.333334 c 1.1,-0.710874 2.6,-1.292498 3.33334,-1.292498 0.73333,0 0.43333,0.581624 -0.66667,1.292498 -1.1,0.710875 -2.6,1.292499 -3.33333,1.292499 -0.73334,0 -0.43334,-0.581624 0.66666,-1.292499 z M 182.33443,79.209572 c 1.32732,-1.466667 2.7133,-2.666667 3.07997,-2.666667 0.36667,0 -0.41932,1.2 -1.74664,2.666667 -1.32732,1.466666 -2.71331,2.666666 -3.07997,2.666666 -0.36667,0 0.41932,-1.2 1.74664,-2.666666 z m 122,-1.333334 c 1.1,-0.710874 2.6,-1.292498 3.33333,-1.292498 0.73333,0 0.43333,0.581624 -0.66667,1.292498 -1.1,0.710875 -2.6,1.292499 -3.33333,1.292499 -0.73333,0 -0.43333,-0.581624 0.66667,-1.292499 z M 187.66776,72.542905 c 1.32732,-1.466667 2.71331,-2.666667 3.07997,-2.666667 0.36667,0 -0.41932,1.2 -1.74664,2.666667 -1.32732,1.466667 -2.7133,2.666667 -3.07997,2.666667 -0.36667,0 0.41932,-1.2 1.74664,-2.666667 z m 3.33333,-4.503407 c 0,-0.276875 1.05,-1.326875 2.33334,-2.333333 2.11474,-1.658495 2.1619,-1.611335 0.50341,0.503406 -1.74183,2.220998 -2.83675,2.927306 -2.83675,1.829927 z m 6,-7.496593 c 1.32732,-1.466667 2.71331,-2.666667 3.07998,-2.666667 0.36666,0 -0.41932,1.2 -1.74664,2.666667 -1.32732,1.466666 -2.71331,2.666666 -3.07998,2.666666 -0.36666,0 0.41932,-1.2 1.74664,-2.666666 z m 68.66667,-6 c -9.16667,-3.184568 -16.04908,-5.837347 -15.29424,-5.895063 0.75484,-0.05772 9.15484,2.549103 18.66667,5.792931 9.51182,3.243826 16.39424,5.896605 15.29424,5.895061 -1.1,-0.0015 -9.5,-2.608361 -18.66667,-5.792929 z m -63.33333,-0.666667 c 1.32732,-1.466667 2.7133,-2.666667 3.07997,-2.666667 0.36667,0 -0.41932,1.2 -1.74664,2.666667 -1.32732,1.466667 -2.71331,2.666667 -3.07997,2.666667 -0.36667,0 0.41932,-1.2 1.74664,-2.666667 z m 8.09888,-10.033594 c 5.07786,-6.196874 5.21265,-6.629006 4.93466,-15.821793 -0.15717,-5.198002 -0.90402,-9.656996 -1.65966,-9.908875 -3.40584,-1.135281 -1.00775,-3.143684 2.95945,-2.478528 2.38333,0.3996 13.15212,-0.243512 23.93064,-1.429136 18.21812,-2.00397 20.98627,-1.996632 39.33333,0.10428 10.85482,1.24298 28.13603,2.325713 38.4027,2.406069 l 18.66666,0.146104 -8.66666,1.874698 c -4.76667,1.031084 -19.76667,2.27966 -33.33334,2.774616 -17.57716,0.64127 -22.94218,1.179717 -18.66666,1.873429 17.20853,2.792116 47.69997,6.497706 53.759,6.53327 13.31113,0.07813 3.16122,2.40456 -16.46314,3.773466 -13.78076,0.961284 -23.67841,0.911594 -34.6292,-0.17385 -29.34458,-2.908643 -62.66666,-1.735214 -62.66666,2.20679 0,0.929682 4.5461,3.10929 10.15238,4.867507 5.58382,1.751172 9.60534,3.3663 8.93672,3.589173 -0.66862,0.222874 -4.73113,-0.804268 -9.02778,-2.282537 -9.74504,-3.352783 -10.54442,-3.345804 -9.64744,0.08423 0.51429,1.966676 0.20042,2.570736 -1.08035,2.079254 -0.99288,-0.381002 -2.54975,0.204362 -3.45972,1.300808 -0.90997,1.096448 -2.8562,2.636672 -4.32495,3.422722 -1.69888,0.909217 -0.77114,-0.88867 2.55002,-4.941697 z"
       style="fill:#ffffff;stroke-width:1.33333" />
  </g>
</svg>
