<?xml version="1.0" encoding="UTF-8" standalone="no"?>
<svg
   xmlns:dc="http://purl.org/dc/elements/1.1/"
   xmlns:cc="http://creativecommons.org/ns#"
   xmlns:rdf="http://www.w3.org/1999/02/22-rdf-syntax-ns#"
   xmlns:svg="http://www.w3.org/2000/svg"
   xmlns="http://www.w3.org/2000/svg"
   xmlns:sodipodi="http://sodipodi.sourceforge.net/DTD/sodipodi-0.dtd"
   xmlns:inkscape="http://www.inkscape.org/namespaces/inkscape"
   inkscape:version="1.0 (6e3e5246a0, 2020-05-07)"
   sodipodi:docname="Hamburger_icon.svg"
   xml:space="preserve"
   width="28"
   viewBox="0 0 28 21"
   version="1.1"
   id="Layer_1"
   height="21"><metadata
     id="metadata9"><rdf:RDF><cc:Work
         rdf:about=""><dc:format>image/svg+xml</dc:format><dc:type
           rdf:resource="http://purl.org/dc/dcmitype/StillImage" /><dc:title></dc:title></cc:Work></rdf:RDF></metadata><defs
     id="defs7" /><sodipodi:namedview
     inkscape:current-layer="Layer_1"
     inkscape:window-maximized="1"
     inkscape:window-y="0"
     inkscape:window-x="0"
     inkscape:cy="13.618681"
     inkscape:cx="15.955241"
     inkscape:zoom="26.53125"
     showgrid="false"
     id="namedview5"
     inkscape:window-height="1012"
     inkscape:window-width="1920"
     inkscape:pageshadow="2"
     inkscape:pageopacity="0"
     guidetolerance="10"
     gridtolerance="10"
     objecttolerance="10"
     borderopacity="1"
     bordercolor="#666666"
     pagecolor="#ffffff" /><path
     id="path2"
     d="M 2.0436567,4.3332698 H 26.043657 c 1.104,0 2,-0.896 2,-2 0,-1.104 -0.896,-2.00000009 -2,-2.00000009 H 2.0436567 c -1.10399997,0 -1.99999997,0.89600009 -1.99999997,2.00000009 0,1.104 0.896,2 1.99999997,2 z M 26.043657,8.3332702 H 2.0436567 c -1.10399997,0 -1.99999997,0.896 -1.99999997,1.9999998 0,1.104 0.896,2 1.99999997,2 H 26.043657 c 1.104,0 2,-0.896 2,-2 0,-1.1039998 -0.896,-1.9999998 -2,-1.9999998 z m 0,7.9999998 H 2.0436567 c -1.10399997,0 -1.99999997,0.896 -1.99999997,2 0,1.104 0.896,2 1.99999997,2 H 26.043657 c 1.104,0 2,-0.896 2,-2 0,-1.104 -0.896,-2 -2,-2 z" /><path
     id="path11"
     d="M 1.7267373,20.28643 C 1.3914064,20.238202 0.91901456,19.99117 0.65253239,19.724688 0.3677054,19.439861 0.14020532,18.988554 0.08728532,18.603369 -0.04627573,17.631228 0.5589907,16.720715 1.5382803,16.420611 c 0.2175641,-0.06667 0.6925633,-0.0693 12.5135457,-0.0693 h 12.287397 l 0.276186,0.09047 c 1.180126,0.386582 1.728978,1.670531 1.189863,2.783488 -0.203553,0.420217 -0.69105,0.832872 -1.180645,0.999387 l -0.247713,0.08425 -12.212014,0.005 c -6.7166079,0.0028 -12.313781,-0.0096 -12.4381627,-0.0275 z"
     style="fill:#ffffff;stroke-width:0.0376914" /><path
     id="path13"
     d="M 1.5288829,12.241243 C 0.68082593,12.012881 0.07289173,11.217272 0.07576167,10.339529 0.07696395,9.9718224 0.121752,9.7818219 0.28876287,9.4359323 0.44420855,9.1139949 0.81428549,8.7417049 1.1425206,8.5770692 1.6433909,8.3258433 0.68593285,8.34326 14.03548,8.3425391 c 8.43869,-4.556e-4 12.188221,0.011583 12.343934,0.039632 0.123007,0.022157 0.360639,0.106025 0.528071,0.1863726 0.524879,0.25188 0.950859,0.7901908 1.067353,1.3488126 0.207086,0.9930397 -0.353695,1.9599897 -1.325978,2.2863747 l -0.285237,0.09575 -12.318443,-0.0025 C 3.5544534,12.294889 1.6973812,12.286616 1.5288829,12.241243 Z"
     style="fill:#ffffff;stroke-width:0.0376914" /><path
     id="path15"
     d="M 1.5674727,4.2508961 C 0.91090201,4.0740568 0.36123745,3.5540161 0.15763594,2.9170415 0.05020606,2.5809433 0.05055775,2.0843519 0.15846729,1.7431707 0.31123271,1.2601673 0.67240051,0.83106846 1.132648,0.58575908 1.609203,0.33175793 0.57737706,0.3496171 14.153387,0.36039197 l 12.29891,0.009761 0.214902,0.0821482 c 0.828012,0.31651469 1.349291,1.04197763 1.349291,1.87780473 0,0.9007352 -0.641167,1.7156891 -1.511164,1.9207621 C 26.292452,4.301046 24.812416,4.307562 14.014134,4.305867 3.6064158,4.3042313 1.7348125,4.2959668 1.5674727,4.2508961 Z"
     style="fill:#ffffff;stroke-width:0.0376914" /></svg>
